<svg width="640" height="360" viewBox="0 0 640 360" fill="none" xmlns="http://www.w3.org/2000/svg">
  <rect width="640" height="360" rx="36" fill="#FFF7ED"/>
  <path d="M118 222H522C533.046 222 542 230.954 542 242V246C542 257.046 533.046 266 522 266H118C106.954 266 98 257.046 98 246V242C98 230.954 106.954 222 118 222Z" fill="#EA580C"/>
  <path d="M182 166C191 150 206 141 224 141H386C407 141 426 151 437 169L458 210H158L182 166Z" fill="#FED7AA"/>
  <circle cx="192" cy="266" r="30" fill="#27272A"/><circle cx="448" cy="266" r="30" fill="#27272A"/>
  <rect x="236" y="154" width="76" height="43" rx="10" fill="#FEF3C7"/><rect x="320" y="154" width="86" height="43" rx="10" fill="#FEF3C7"/>
  <text x="320" y="82" text-anchor="middle" fill="#18181B" font-family="Arial, sans-serif" font-size="34" font-weight="700">Hyundai Aura</text>
</svg>
