<svg xmlns="http://www.w3.org/2000/svg" viewBox="0 0 480 260" role="img" aria-labelledby="title">
  <title id="title">Urbania Bus</title>
  <defs>
    <linearGradient id="grad" x1="0" y1="0" x2="1" y2="1">
      <stop offset="0%" stop-color="#fb923c" />
      <stop offset="100%" stop-color="#f97316" />
    </linearGradient>
  </defs>
  <rect x="20" y="80" width="440" height="120" rx="32" fill="url(#grad)" />
  <rect x="40" y="100" width="380" height="60" rx="20" fill="#fff" opacity="0.8" />
  <rect x="60" y="110" width="80" height="40" rx="12" fill="#f97316" />
  <rect x="160" y="110" width="50" height="40" rx="10" fill="#f97316" />
  <rect x="230" y="110" width="50" height="40" rx="10" fill="#f97316" />
  <rect x="300" y="110" width="50" height="40" rx="10" fill="#f97316" />
  <rect x="370" y="110" width="50" height="40" rx="10" fill="#f97316" />
  <rect x="60" y="160" width="360" height="25" rx="12" fill="#f97316" />
  <circle cx="120" cy="220" r="30" fill="#1f2937" />
  <circle cx="120" cy="220" r="16" fill="#f97316" />
  <circle cx="360" cy="220" r="30" fill="#1f2937" />
  <circle cx="360" cy="220" r="16" fill="#f97316" />
  <path d="M100 74 L100 40 H260 L280 74" fill="#f97316" opacity="0.9" />
</svg>
