<svg width="420" height="460" viewBox="0 0 420 460" fill="none" xmlns="http://www.w3.org/2000/svg">
  <defs>
    <filter id="mapShadow" x="0" y="0" width="420" height="460" filterUnits="userSpaceOnUse" color-interpolation-filters="sRGB">
      <feOffset dy="6" />
      <feGaussianBlur stdDeviation="7" />
      <feColorMatrix type="matrix" values="0 0 0 0 0 0 0 0 0 0 0 0 0 0 0 0 0 0 0.28 0" />
      <feBlend in="SourceGraphic" mode="normal" />
    </filter>
    <clipPath id="indiaMainClip">
      <path d="M208 18C191 22 179 33 171 47C160 42 147 43 135 50C126 56 124 68 116 76C109 82 98 81 95 90C96 99 107 104 105 114C101 124 91 132 89 144C84 154 76 164 67 174C58 185 47 197 45 212C43 226 53 237 55 249C54 260 46 271 50 282C57 290 72 291 84 288C95 286 106 278 117 279C125 282 130 294 133 306C136 321 144 335 150 349C156 364 159 380 166 394C172 408 178 423 186 436C192 447 202 454 213 452C225 448 234 438 242 426C249 410 255 394 262 379C269 362 280 348 288 333C297 319 309 306 316 290C324 274 334 259 341 241C349 223 357 205 361 186C364 171 364 156 359 145C352 136 341 130 329 128C321 126 314 121 314 113C315 104 324 96 326 86C328 75 322 66 312 60C301 54 288 52 281 42C272 30 260 20 245 17C233 14 220 14 208 18Z" />
    </clipPath>
    <clipPath id="indiaNorthEastClip">
      <path d="M339 146C351 137 367 133 384 134C395 135 406 142 408 150C401 158 391 163 380 165C368 168 356 168 347 175C339 181 327 182 320 176C319 165 328 154 339 146Z" />
    </clipPath>
  </defs>

  <g filter="url(#mapShadow)">
    <g clip-path="url(#indiaMainClip)">
      <rect x="30" y="8" width="340" height="140" fill="#FF9933" />
      <rect x="30" y="148" width="340" height="118" fill="#FFFFFF" />
      <rect x="30" y="266" width="340" height="186" fill="#138808" />
    </g>

    <g clip-path="url(#indiaNorthEastClip)">
      <rect x="318" y="136" width="95" height="16" fill="#FF9933" />
      <rect x="318" y="152" width="95" height="16" fill="#FFFFFF" />
    </g>

    <g>
      <circle cx="205" cy="214" r="47" fill="none" stroke="#000080" stroke-width="5" />
      <circle cx="205" cy="214" r="10" fill="#000080" />
      <g stroke="#000080" stroke-width="2" stroke-linecap="round">
        <line x1="205" y1="214" x2="249" y2="214" />
        <line x1="205" y1="214" x2="247.5" y2="225.4" />
        <line x1="205" y1="214" x2="243.1" y2="236" />
        <line x1="205" y1="214" x2="236.1" y2="245.1" />
        <line x1="205" y1="214" x2="227" y2="252.1" />
        <line x1="205" y1="214" x2="216.4" y2="256.5" />
        <line x1="205" y1="214" x2="205" y2="258" />
        <line x1="205" y1="214" x2="193.6" y2="256.5" />
        <line x1="205" y1="214" x2="183" y2="252.1" />
        <line x1="205" y1="214" x2="173.9" y2="245.1" />
        <line x1="205" y1="214" x2="166.9" y2="236" />
        <line x1="205" y1="214" x2="162.5" y2="225.4" />
        <line x1="205" y1="214" x2="161" y2="214" />
        <line x1="205" y1="214" x2="162.5" y2="202.6" />
        <line x1="205" y1="214" x2="166.9" y2="192" />
        <line x1="205" y1="214" x2="173.9" y2="182.9" />
        <line x1="205" y1="214" x2="183" y2="175.9" />
        <line x1="205" y1="214" x2="193.6" y2="171.5" />
        <line x1="205" y1="214" x2="205" y2="170" />
        <line x1="205" y1="214" x2="216.4" y2="171.5" />
        <line x1="205" y1="214" x2="227" y2="175.9" />
        <line x1="205" y1="214" x2="236.1" y2="182.9" />
        <line x1="205" y1="214" x2="243.1" y2="192" />
        <line x1="205" y1="214" x2="247.5" y2="202.6" />
      </g>
    </g>

    <path d="M208 18C191 22 179 33 171 47C160 42 147 43 135 50C126 56 124 68 116 76C109 82 98 81 95 90C96 99 107 104 105 114C101 124 91 132 89 144C84 154 76 164 67 174C58 185 47 197 45 212C43 226 53 237 55 249C54 260 46 271 50 282C57 290 72 291 84 288C95 286 106 278 117 279C125 282 130 294 133 306C136 321 144 335 150 349C156 364 159 380 166 394C172 408 178 423 186 436C192 447 202 454 213 452C225 448 234 438 242 426C249 410 255 394 262 379C269 362 280 348 288 333C297 319 309 306 316 290C324 274 334 259 341 241C349 223 357 205 361 186C364 171 364 156 359 145C352 136 341 130 329 128C321 126 314 121 314 113C315 104 324 96 326 86C328 75 322 66 312 60C301 54 288 52 281 42C272 30 260 20 245 17C233 14 220 14 208 18Z" fill="none" stroke="#3A3A3A" stroke-width="3" stroke-linejoin="round" />
    <path d="M339 146C351 137 367 133 384 134C395 135 406 142 408 150C401 158 391 163 380 165C368 168 356 168 347 175C339 181 327 182 320 176C319 165 328 154 339 146Z" fill="none" stroke="#3A3A3A" stroke-width="3" stroke-linejoin="round" />
  </g>
</svg>